<svg xmlns="http://www.w3.org/2000/svg" width="33.837" height="31.858" viewBox="0 0 33.837 31.858">
  <g id="Group_3" data-name="Group 3" transform="translate(0 0)">
    <path id="Path_11" data-name="Path 11" d="M199.684,10.638l-2.856.945c-.7-2.665-3.576-2.721-3.576-4.757a1.683,1.683,0,0,1,.225-.8l1.855.9c.034.18.281.562.978.562A1.2,1.2,0,0,0,197.5,6.342a.791.791,0,0,0-.18-.495L195.2,3.16a1.094,1.094,0,0,0,.09-.382c0-.686-.933-.922-.933-1.226a.917.917,0,0,1,.067-.247A1.117,1.117,0,0,0,194.14.157l-.394.787h-.011A.88.88,0,0,0,193.3,0c-.157.607-.461,1.574-1.1,1.574-.495,0-.607-.562-.551-.956-.9.124-.933,1.406-2.1,1.406a.971.971,0,0,1-.765-.371,1.493,1.493,0,0,0-.022,1.743l-.011.011a1.8,1.8,0,0,0-2.294.742c.731.484.866.933.866,1.214s-.146.45-.371.45a.667.667,0,0,1-.439-.191,1.659,1.659,0,0,0,1.608,2.058v.011a1.621,1.621,0,0,0-1.023,2.373.615.615,0,0,1,1.1.112,1.511,1.511,0,0,0-.349,1.035,1.157,1.157,0,0,0,.45.933.471.471,0,0,1,.45-.349c.27,0,.45.191.45.517,0,.686-.652,1.271-1.439,1.608-1.766.753-4.082.416-5.971.787a4.859,4.859,0,0,0-1.957.81,4.7,4.7,0,0,0-4.228-2.676,3.167,3.167,0,0,0-3.4,3.2c0,2.62,2.564,4.138,2.564,5.679,0,.855-.686,1.226-1.642.978a2.34,2.34,0,0,0,2.125,1.226,2.007,2.007,0,0,0,1.99-2.024c0-1.586-1.574-2.62-1.574-4.1h.011a.923.923,0,0,0,1.5.169,1.264,1.264,0,0,1-.607-1.147,1.181,1.181,0,0,1,1.147-1.259,1.385,1.385,0,0,1,1.215.686,3.186,3.186,0,0,0-.776,2.137c0,1.563,1.023,2.26,1.023,3.475a3.2,3.2,0,0,1-1.529,2.519,15.207,15.207,0,0,1,1.833,6.252l.641.45v.776h2.541l-.843-1.1c-1.214-.607-1.462-2.159-1.732-3.475a5.035,5.035,0,0,1-.146-1.889c.214-.922,1.394-.933,2.193-2.148a5.955,5.955,0,0,1-.675,2.6,18.316,18.316,0,0,1,3.925,4.835l.731.394.022.776H188.7l-.888-1.08c-1.046-.4-1.889-1.687-2.766-3.014a5.652,5.652,0,0,1-1.158-2.193c0-1.057,2.474-2.35,2.688-4.6,2.766.034,5.915-.708,7.4-2.249a3.166,3.166,0,0,0,2.823-1.012,7.27,7.27,0,0,1,2.44-1.417c.191-.056.416-.1.472-.056.068.067.068.236.068.427a9.421,9.421,0,0,1-.708,3.385l.214.8h-.787V23.39l1.439-1.226.54-1.462.663-5.69a16.8,16.8,0,0,0-4.138-.27,10.223,10.223,0,0,1,2.485-2.1,6.826,6.826,0,0,1,3.306,2.834l.7.191v.742h2.553l-.843-1.068A37.749,37.749,0,0,1,199.684,10.638Z" transform="translate(-172.2 0)"/>
    <g id="Group_2" data-name="Group 2" transform="translate(0.84 1.889)">
      <path id="Path_12" data-name="Path 12" d="M182.34,28.5a2.728,2.728,0,0,1,1.811.607c-1.237-.562-3.081-.191-3.216,1.3a1.246,1.246,0,0,1-.3-.765,1.986,1.986,0,0,0-.9,1.529C179.372,29.552,180.7,28.5,182.34,28.5Zm6.86,1.766c1.721-.214,4.06-.022,5.971-.967a2.743,2.743,0,0,0,1.8-2.193c0-1.214-1.5-2.406-1.5-4.982a5.19,5.19,0,0,1,2.71-4.678,4.828,4.828,0,0,0-1.844,3.823,3.893,3.893,0,0,0,2.6,3.891c1.417.562,2.733.574,3.306,1.754a2.7,2.7,0,0,0-1.6-.529c-2.879,0-3.97,5.387-7.343,6.916.72-1.867-1.439-2.474-3.441-2.429-1.63.034-4.116.484-4.149,3.059C185.264,32.206,186.254,30.632,189.2,30.261Zm13.326-8.726c0-.146.09-.4.09-.63a.842.842,0,0,0-.169-.484,9.724,9.724,0,0,0-.967-1.248,1.8,1.8,0,0,0-1.608-.63c.551-.3.675-.585.675-.9a1.346,1.346,0,0,0-.394-.843c.36.067,1.3.45,1.3.967a.493.493,0,0,1-.157.315l2.272,2.856c-.079.124-.259.067-.4.067a.151.151,0,0,0-.157.169,1.155,1.155,0,0,0,.236.562.676.676,0,0,1-.349.1C202.717,21.838,202.526,21.77,202.526,21.534Z" transform="translate(-179.672 -16.8)" fill="#006a4d"/>
    </g>
  </g>
</svg>
