<svg xmlns="http://www.w3.org/2000/svg" width="38.948" height="4.293" viewBox="0 0 38.948 4.293">
  <g id="Group_1" data-name="Group 1" transform="translate(0 0)">
    <path id="Path_1" data-name="Path 1" d="M.862,320.8v-2.9a2.49,2.49,0,0,1,.1-.6H0a2.782,2.782,0,0,1,.1.6v2.987a2.491,2.491,0,0,1-.1.6H2.488l.24-.764a2.761,2.761,0,0,1-.807.08Z" transform="translate(0 -317.245)"/>
    <path id="Path_2" data-name="Path 2" d="M51.262,320.8v-2.9a2.489,2.489,0,0,1,.1-.6H50.4a2.783,2.783,0,0,1,.1.6v2.987a2.491,2.491,0,0,1-.1.6h2.488l.24-.764a2.761,2.761,0,0,1-.807.08Z" transform="translate(-47.296 -317.245)"/>
    <path id="Path_3" data-name="Path 3" d="M98.431,316.5a2.137,2.137,0,1,0,2.131,2.137A2.08,2.08,0,0,0,98.431,316.5Zm0,3.6a1.457,1.457,0,1,1,1.355-1.454A1.321,1.321,0,0,1,98.431,320.1Z" transform="translate(-90.369 -316.494)"/>
    <path id="Path_4" data-name="Path 4" d="M169.147,317.96a4.229,4.229,0,0,1-.893,1.46,4.547,4.547,0,0,1-.856-1.46,2.171,2.171,0,0,1-.117-.56H166.4a5.855,5.855,0,0,0,1.478,2.63v1.546h.77V320.03a5.855,5.855,0,0,0,1.478-2.63h-.856A2.489,2.489,0,0,1,169.147,317.96Z" transform="translate(-156.152 -317.338)"/>
    <path id="Path_5" data-name="Path 5" d="M236.81,317.3H235.4a2.785,2.785,0,0,1,.1.6v2.987a2.493,2.493,0,0,1-.1.6h1.41a2.093,2.093,0,1,0,0-4.182Zm-.055,3.5h-.493v-2.815h.493a1.408,1.408,0,1,1,0,2.815Z" transform="translate(-220.902 -317.245)"/>
    <path id="Path_6" data-name="Path 6" d="M303.257,318.34l-.844-.345c-.326-.135-.468-.283-.468-.53,0-.265.216-.437.653-.437a2.1,2.1,0,0,1,1.164.437v-.807a2.791,2.791,0,0,0-1.127-.259c-.868,0-1.435.456-1.435,1.183,0,.536.277.875.893,1.127l.671.271c.419.172.548.345.548.567,0,.333-.3.517-.77.517a2.324,2.324,0,0,1-1.3-.5l.012.838a3.113,3.113,0,0,0,1.25.289c.992,0,1.552-.53,1.552-1.244A1.134,1.134,0,0,0,303.257,318.34Z" transform="translate(-282.65 -316.4)"/>
    <path id="Path_7" data-name="Path 7" d="M380.147,319.308a1.087,1.087,0,0,0,.585-.955c0-.641-.487-1.053-1.281-1.053H377.8a2.791,2.791,0,0,1,.1.6v2.987a2.492,2.492,0,0,1-.1.6h1.663c.924,0,1.4-.48,1.4-1.195A1.021,1.021,0,0,0,380.147,319.308Zm-1.484-1.343h.708c.363,0,.585.185.585.536s-.2.56-.61.56h-.684Zm.807,2.852h-.807v-1.133h.776c.394,0,.659.2.659.567S379.882,320.817,379.469,320.817Z" transform="translate(-354.532 -317.245)"/>
    <path id="Path_8" data-name="Path 8" d="M434.9,317.3h-1.029l-1.2,3.5a5.038,5.038,0,0,1-.271.665h.942a2.219,2.219,0,0,1,.1-.6l.129-.4h1.583l.129.4a2,2,0,0,1,.1.6h.967a5.4,5.4,0,0,1-.271-.665Zm-1.109,2.531.585-1.811.579,1.811Z" transform="translate(-405.769 -317.245)"/>
    <path id="Path_9" data-name="Path 9" d="M507.948,317.3h-.918a2.782,2.782,0,0,1,.1.6v2.377l-1.706-2.975H504.4a2.779,2.779,0,0,1,.1.6v2.987a2.489,2.489,0,0,1-.1.6h.918a2.782,2.782,0,0,1-.1-.6v-2.47l1.761,3.061h.887c-.012-.32-.012-.48-.012-.7V317.9A3.229,3.229,0,0,1,507.948,317.3Z" transform="translate(-473.335 -317.245)"/>
    <path id="Path_10" data-name="Path 10" d="M579.163,320.884l-1.232-1.644,1.127-1.33c.179-.209.283-.345.524-.6h-.961a4.207,4.207,0,0,1-.437.622l-1.121,1.3V317.9a2.839,2.839,0,0,1,.1-.6H576.2a2.794,2.794,0,0,1,.1.6v2.987a2.49,2.49,0,0,1-.1.6h.961a2.778,2.778,0,0,1-.1-.6v-1.577l1.164,1.546a5.913,5.913,0,0,1,.431.622h1A7.5,7.5,0,0,1,579.163,320.884Z" transform="translate(-540.713 -317.245)"/>
  </g>
</svg>
