<svg xmlns="http://www.w3.org/2000/svg" width="71.115" height="7.838" viewBox="0 0 71.115 7.838">
  <g id="Group_1" data-name="Group 1" transform="translate(0 0)">
    <path id="Path_1" data-name="Path 1" d="M1.574,323.687v-5.3a4.547,4.547,0,0,1,.18-1.091H0a5.08,5.08,0,0,1,.18,1.091v5.454A4.548,4.548,0,0,1,0,324.936H4.543l.439-1.394a5.041,5.041,0,0,1-1.473.146Z" transform="translate(0 -317.199)"/>
    <path id="Path_2" data-name="Path 2" d="M51.974,323.687v-5.3a4.546,4.546,0,0,1,.18-1.091H50.4a5.079,5.079,0,0,1,.18,1.091v5.454a4.547,4.547,0,0,1-.18,1.091h4.543l.439-1.394a5.041,5.041,0,0,1-1.473.146Z" transform="translate(-44.732 -317.199)"/>
    <path id="Path_3" data-name="Path 3" d="M100.191,316.5a3.9,3.9,0,1,0,3.891,3.9A3.8,3.8,0,0,0,100.191,316.5Zm0,6.567a2.66,2.66,0,1,1,2.474-2.654A2.412,2.412,0,0,1,100.191,323.067Z" transform="translate(-85.471 -316.489)"/>
    <path id="Path_4" data-name="Path 4" d="M171.415,318.423a7.722,7.722,0,0,1-1.631,2.665,8.3,8.3,0,0,1-1.563-2.665,3.964,3.964,0,0,1-.214-1.023H166.4a10.691,10.691,0,0,0,2.7,4.8v2.823H170.5V322.2a10.691,10.691,0,0,0,2.7-4.8H171.64A4.546,4.546,0,0,1,171.415,318.423Z" transform="translate(-147.688 -317.288)"/>
    <path id="Path_5" data-name="Path 5" d="M237.975,317.3H235.4a5.082,5.082,0,0,1,.18,1.091v5.454a4.547,4.547,0,0,1-.18,1.091h2.575a3.822,3.822,0,1,0,0-7.636Zm-.1,6.387h-.9v-5.139h.9a2.571,2.571,0,1,1,0,5.139Z" transform="translate(-208.929 -317.199)"/>
    <path id="Path_6" data-name="Path 6" d="M304.956,319.942l-1.541-.63c-.6-.247-.855-.517-.855-.967,0-.484.394-.8,1.192-.8a3.829,3.829,0,0,1,2.125.8v-1.473a5.1,5.1,0,0,0-2.058-.472c-1.586,0-2.62.832-2.62,2.159,0,.978.506,1.6,1.631,2.058l1.226.495c.765.315,1,.63,1,1.035,0,.607-.551.945-1.406.945a4.244,4.244,0,0,1-2.373-.911l.023,1.529a5.683,5.683,0,0,0,2.283.529c1.81,0,2.834-.967,2.834-2.272A2.071,2.071,0,0,0,304.956,319.942Z" transform="translate(-267.329 -316.4)"/>
    <path id="Path_7" data-name="Path 7" d="M382.084,320.966a1.984,1.984,0,0,0,1.068-1.743c0-1.169-.888-1.923-2.339-1.923H377.8a5.088,5.088,0,0,1,.18,1.091v5.454a4.548,4.548,0,0,1-.18,1.091h3.036c1.687,0,2.564-.877,2.564-2.182A1.864,1.864,0,0,0,382.084,320.966Zm-2.71-2.451h1.293c.664,0,1.068.337,1.068.978,0,.619-.36,1.023-1.113,1.023h-1.248Zm1.473,5.207h-1.473v-2.069h1.417c.72,0,1.2.371,1.2,1.035S381.6,323.721,380.848,323.721Z" transform="translate(-335.315 -317.199)"/>
    <path id="Path_8" data-name="Path 8" d="M436.966,317.3h-1.878l-2.193,6.4a9.187,9.187,0,0,1-.495,1.214h1.721a4.048,4.048,0,0,1,.191-1.091l.236-.731h2.89l.236.731a3.652,3.652,0,0,1,.191,1.091h1.766a9.853,9.853,0,0,1-.495-1.214Zm-2.024,4.622,1.068-3.306,1.057,3.306Z" transform="translate(-383.775 -317.199)"/>
    <path id="Path_9" data-name="Path 9" d="M510.877,317.3H509.2a5.08,5.08,0,0,1,.18,1.091v4.341l-3.115-5.431H504.4a5.088,5.088,0,0,1,.18,1.091v5.454a4.548,4.548,0,0,1-.18,1.091h1.675a5.08,5.08,0,0,1-.18-1.091v-4.509l3.216,5.589h1.619c-.022-.585-.022-.877-.022-1.282v-5.252A5.891,5.891,0,0,1,510.877,317.3Z" transform="translate(-447.679 -317.199)"/>
    <path id="Path_10" data-name="Path 10" d="M581.609,323.845l-2.249-3,2.058-2.429c.326-.382.517-.63.956-1.1H580.62a7.693,7.693,0,0,1-.8,1.136l-2.047,2.373v-2.429a5.184,5.184,0,0,1,.18-1.091H576.2a5.087,5.087,0,0,1,.18,1.091v5.454a4.548,4.548,0,0,1-.18,1.091h1.754a5.073,5.073,0,0,1-.18-1.091v-2.879l2.125,2.823a10.771,10.771,0,0,1,.787,1.136h1.833A13.719,13.719,0,0,1,581.609,323.845Z" transform="translate(-511.405 -317.199)"/>
  </g>
</svg>
