<svg xmlns="http://www.w3.org/2000/svg" width="40.085" height="37.74" viewBox="0 0 40.085 37.74">
  <g id="Group_3" data-name="Group 3" transform="translate(0 0)">
    <path id="Path_11" data-name="Path 11" d="M204.758,12.6l-3.384,1.119c-.826-3.157-4.236-3.224-4.236-5.635a1.993,1.993,0,0,1,.266-.946l2.2,1.066c.04.213.333.666,1.159.666a1.42,1.42,0,0,0,1.412-1.359.937.937,0,0,0-.213-.586l-2.518-3.184a1.3,1.3,0,0,0,.107-.453c0-.813-1.106-1.092-1.106-1.452a1.087,1.087,0,0,1,.08-.293A1.324,1.324,0,0,0,198.19.187l-.466.933h-.013A1.042,1.042,0,0,0,197.191,0c-.187.719-.546,1.865-1.306,1.865-.586,0-.719-.666-.653-1.132-1.066.147-1.106,1.665-2.491,1.665a1.15,1.15,0,0,1-.906-.44,1.768,1.768,0,0,0-.027,2.065l-.013.013a2.126,2.126,0,0,0-2.718.879c.866.573,1.026,1.106,1.026,1.439s-.173.533-.44.533a.79.79,0,0,1-.52-.226,1.965,1.965,0,0,0,1.9,2.438v.013a1.92,1.92,0,0,0-1.212,2.811.728.728,0,0,1,1.306.133,1.79,1.79,0,0,0-.413,1.226,1.371,1.371,0,0,0,.533,1.106.558.558,0,0,1,.533-.413c.32,0,.533.226.533.613,0,.813-.773,1.505-1.705,1.9-2.091.893-4.836.493-7.074.933a5.756,5.756,0,0,0-2.318.959,5.571,5.571,0,0,0-5.009-3.171,3.751,3.751,0,0,0-4.023,3.8c0,3.1,3.037,4.9,3.037,6.727,0,1.012-.813,1.452-1.945,1.159a2.772,2.772,0,0,0,2.518,1.452,2.378,2.378,0,0,0,2.358-2.4c0-1.878-1.865-3.1-1.865-4.862h.013a1.093,1.093,0,0,0,1.772.2,1.5,1.5,0,0,1-.719-1.359,1.4,1.4,0,0,1,1.359-1.492,1.641,1.641,0,0,1,1.439.813,3.774,3.774,0,0,0-.919,2.531c0,1.852,1.212,2.678,1.212,4.116a3.794,3.794,0,0,1-1.812,2.984,18.014,18.014,0,0,1,2.171,7.407l.759.533v.919h3.011l-1-1.306c-1.439-.719-1.732-2.558-2.052-4.116a5.963,5.963,0,0,1-.173-2.238c.253-1.092,1.652-1.106,2.6-2.544a7.055,7.055,0,0,1-.8,3.077,21.7,21.7,0,0,1,4.649,5.728l.866.466.027.919h3.037l-1.052-1.279c-1.239-.48-2.238-2-3.277-3.57-.946-1.412-1.372-2.145-1.372-2.6,0-1.252,2.931-2.784,3.184-5.449,3.277.04,7.007-.839,8.766-2.664a3.75,3.75,0,0,0,3.344-1.2,8.613,8.613,0,0,1,2.891-1.679c.226-.067.493-.12.56-.067.08.08.08.28.08.506a11.16,11.16,0,0,1-.839,4.01l.253.946h-.932v3.024l1.705-1.452.639-1.732.786-6.741a19.9,19.9,0,0,0-4.9-.32,12.112,12.112,0,0,1,2.944-2.491,8.086,8.086,0,0,1,3.917,3.357l.826.226v.879h3.024l-1-1.266A44.719,44.719,0,0,1,204.758,12.6Z" transform="translate(-172.2 0)"/>
    <g id="Group_2" data-name="Group 2" transform="translate(0.995 2.238)">
      <path id="Path_12" data-name="Path 12" d="M182.833,30.654a3.232,3.232,0,0,1,2.145.719c-1.465-.666-3.65-.226-3.81,1.545a1.476,1.476,0,0,1-.36-.906,2.353,2.353,0,0,0-1.066,1.812C179.316,31.907,180.888,30.654,182.833,30.654Zm8.126,2.091c2.038-.253,4.809-.027,7.074-1.146,1.066-.52,2.131-1.412,2.131-2.6,0-1.439-1.772-2.851-1.772-5.9a6.148,6.148,0,0,1,3.211-5.542,5.719,5.719,0,0,0-2.185,4.529A4.612,4.612,0,0,0,202.5,26.7c1.679.666,3.237.679,3.917,2.078a3.2,3.2,0,0,0-1.892-.626c-3.41,0-4.7,6.381-8.7,8.193.853-2.211-1.705-2.931-4.076-2.877-1.932.04-4.876.573-4.916,3.623C186.3,35.051,187.469,33.186,190.959,32.746Zm15.786-10.338c0-.173.107-.48.107-.746a1,1,0,0,0-.2-.573,11.518,11.518,0,0,0-1.146-1.479,2.129,2.129,0,0,0-1.905-.746c.653-.36.8-.693.8-1.066a1.6,1.6,0,0,0-.466-1c.426.08,1.545.533,1.545,1.146a.584.584,0,0,1-.186.373l2.691,3.384c-.093.147-.306.08-.48.08a.179.179,0,0,0-.186.2,1.369,1.369,0,0,0,.28.666.8.8,0,0,1-.413.12C206.972,22.768,206.745,22.688,206.745,22.408Z" transform="translate(-179.672 -16.8)" fill="#006a4d"/>
    </g>
  </g>
</svg>
