<svg xmlns="http://www.w3.org/2000/svg" width="84.246" height="9.285" viewBox="0 0 84.246 9.285">
  <g id="Group_1" data-name="Group 1" transform="translate(0 0)">
    <path id="Path_1" data-name="Path 1" d="M1.865,324.867v-6.275a5.386,5.386,0,0,1,.213-1.292H0a6.019,6.019,0,0,1,.213,1.292v6.461A5.386,5.386,0,0,1,0,326.345H5.382l.52-1.652a5.972,5.972,0,0,1-1.745.173Z" transform="translate(0 -317.18)"/>
    <path id="Path_2" data-name="Path 2" d="M52.265,324.867v-6.275a5.386,5.386,0,0,1,.213-1.292H50.4a6.018,6.018,0,0,1,.213,1.292v6.461a5.386,5.386,0,0,1-.213,1.292h5.382l.52-1.652a5.972,5.972,0,0,1-1.745.173Z" transform="translate(-43.686 -317.18)"/>
    <path id="Path_3" data-name="Path 3" d="M100.909,316.5a4.623,4.623,0,1,0,4.609,4.623A4.5,4.5,0,0,0,100.909,316.5Zm0,7.78a3.152,3.152,0,1,1,2.931-3.144A2.857,2.857,0,0,1,100.909,324.28Z" transform="translate(-83.471 -316.487)"/>
    <path id="Path_4" data-name="Path 4" d="M172.341,318.612a9.146,9.146,0,0,1-1.932,3.157,9.832,9.832,0,0,1-1.852-3.157,4.7,4.7,0,0,1-.253-1.212h-1.9a12.665,12.665,0,0,0,3.2,5.688v3.344h1.665v-3.344a12.665,12.665,0,0,0,3.2-5.688h-1.852A5.387,5.387,0,0,1,172.341,318.612Z" transform="translate(-144.233 -317.267)"/>
    <path id="Path_5" data-name="Path 5" d="M238.451,317.3H235.4a6.019,6.019,0,0,1,.213,1.292v6.461a5.386,5.386,0,0,1-.213,1.292h3.051a4.527,4.527,0,1,0,0-9.045Zm-.12,7.567h-1.066v-6.088h1.066c2.052,0,3.157,1.079,3.157,3.037S240.382,324.867,238.331,324.867Z" transform="translate(-204.041 -317.18)"/>
    <path id="Path_6" data-name="Path 6" d="M305.649,320.6l-1.825-.746c-.706-.293-1.012-.613-1.012-1.146,0-.573.466-.946,1.412-.946a4.537,4.537,0,0,1,2.518.946v-1.745a6.036,6.036,0,0,0-2.438-.559c-1.878,0-3.1.986-3.1,2.558,0,1.159.6,1.892,1.932,2.438l1.452.586c.906.373,1.186.746,1.186,1.226,0,.719-.653,1.119-1.665,1.119a5.027,5.027,0,0,1-2.811-1.079l.027,1.812a6.733,6.733,0,0,0,2.7.626c2.145,0,3.357-1.146,3.357-2.691A2.453,2.453,0,0,0,305.649,320.6Z" transform="translate(-261.075 -316.4)"/>
    <path id="Path_7" data-name="Path 7" d="M382.875,321.643a2.351,2.351,0,0,0,1.266-2.065c0-1.385-1.052-2.278-2.771-2.278H377.8a6.023,6.023,0,0,1,.213,1.292v6.461a5.389,5.389,0,0,1-.213,1.292h3.6c2,0,3.037-1.039,3.037-2.584A2.208,2.208,0,0,0,382.875,321.643Zm-3.21-2.9H381.2c.786,0,1.266.4,1.266,1.159,0,.733-.426,1.212-1.319,1.212h-1.479Zm1.745,6.168h-1.745v-2.451h1.678c.853,0,1.425.44,1.425,1.226S382.3,324.907,381.41,324.907Z" transform="translate(-327.471 -317.18)"/>
    <path id="Path_8" data-name="Path 8" d="M437.809,317.3h-2.225l-2.6,7.58a10.875,10.875,0,0,1-.586,1.439h2.038a4.793,4.793,0,0,1,.227-1.292l.28-.866h3.424l.28.866a4.326,4.326,0,0,1,.226,1.292h2.091a11.683,11.683,0,0,1-.586-1.439Zm-2.4,5.475,1.266-3.917,1.252,3.917Z" transform="translate(-374.797 -317.18)"/>
    <path id="Path_9" data-name="Path 9" d="M512.073,317.3h-1.985a6.018,6.018,0,0,1,.213,1.292v5.142l-3.69-6.434H504.4a6.018,6.018,0,0,1,.213,1.292v6.461a5.384,5.384,0,0,1-.213,1.292h1.985a6.016,6.016,0,0,1-.213-1.292v-5.342l3.81,6.621H511.9c-.027-.693-.027-1.039-.027-1.519v-6.221A6.993,6.993,0,0,1,512.073,317.3Z" transform="translate(-437.206 -317.18)"/>
    <path id="Path_10" data-name="Path 10" d="M582.608,325.053l-2.664-3.557,2.438-2.877c.386-.453.613-.746,1.132-1.306h-2.078a9.106,9.106,0,0,1-.946,1.345l-2.424,2.811v-2.877a6.147,6.147,0,0,1,.213-1.292H576.2a6.015,6.015,0,0,1,.213,1.292v6.461a5.387,5.387,0,0,1-.213,1.292h2.078a6.014,6.014,0,0,1-.213-1.292v-3.41l2.518,3.344a12.761,12.761,0,0,1,.932,1.346h2.172A16.254,16.254,0,0,1,582.608,325.053Z" transform="translate(-499.441 -317.18)"/>
  </g>
</svg>
