<svg xmlns="http://www.w3.org/2000/svg" width="18.532" height="17.448" viewBox="0 0 18.532 17.448">
  <g id="Group_3" data-name="Group 3" transform="translate(0 0)">
    <path id="Path_11" data-name="Path 11" d="M187.252,5.826l-1.564.517c-.382-1.46-1.959-1.49-1.959-2.605a.922.922,0,0,1,.123-.437l1.016.493c.018.1.154.308.536.308a.657.657,0,0,0,.653-.628.433.433,0,0,0-.1-.271l-1.164-1.472a.6.6,0,0,0,.049-.209c0-.376-.511-.505-.511-.671a.5.5,0,0,1,.037-.135.612.612,0,0,0-.154-.628L184,.517h-.006a.482.482,0,0,0-.24-.517c-.086.333-.253.862-.6.862-.271,0-.333-.308-.3-.524-.493.068-.511.77-1.152.77a.532.532,0,0,1-.419-.2.817.817,0,0,0-.012.955l-.006.006A.983.983,0,0,0,180,2.273c.4.265.474.511.474.665s-.08.246-.2.246a.365.365,0,0,1-.24-.1.909.909,0,0,0,.881,1.127v.006a.888.888,0,0,0-.56,1.3.337.337,0,0,1,.6.062.828.828,0,0,0-.191.567.634.634,0,0,0,.246.511.258.258,0,0,1,.246-.191c.148,0,.246.1.246.283,0,.376-.357.7-.788.881-.967.413-2.236.228-3.27.431a2.661,2.661,0,0,0-1.072.443,2.575,2.575,0,0,0-2.316-1.466,1.734,1.734,0,0,0-1.86,1.755c0,1.435,1.4,2.266,1.4,3.11,0,.468-.376.671-.9.536a1.282,1.282,0,0,0,1.164.671A1.1,1.1,0,0,0,174.959,12c0-.868-.862-1.435-.862-2.248h.006a.505.505,0,0,0,.819.092.692.692,0,0,1-.333-.628.647.647,0,0,1,.628-.69.759.759,0,0,1,.665.376,1.745,1.745,0,0,0-.425,1.17c0,.856.56,1.238.56,1.9a1.754,1.754,0,0,1-.838,1.38,8.328,8.328,0,0,1,1,3.424l.351.246v.425h1.392l-.462-.6c-.665-.333-.8-1.183-.948-1.9a2.757,2.757,0,0,1-.08-1.035c.117-.505.764-.511,1.2-1.176a3.262,3.262,0,0,1-.37,1.423,10.031,10.031,0,0,1,2.149,2.648l.4.216.012.425h1.4l-.487-.591a4.12,4.12,0,0,1-1.515-1.651A3.1,3.1,0,0,1,178.6,14c0-.579,1.355-1.287,1.472-2.519a5.973,5.973,0,0,0,4.052-1.232,1.734,1.734,0,0,0,1.546-.554,3.982,3.982,0,0,1,1.336-.776c.1-.031.228-.055.259-.031s.037.129.037.234a5.159,5.159,0,0,1-.388,1.854l.117.437H186.6v1.4l.788-.671.3-.8.363-3.116a9.2,9.2,0,0,0-2.266-.148,5.6,5.6,0,0,1,1.361-1.152,3.739,3.739,0,0,1,1.811,1.552l.382.1v.406h1.4L190.27,8.4A20.675,20.675,0,0,1,187.252,5.826Z" transform="translate(-172.2 0)"/>
    <g id="Group_2" data-name="Group 2" transform="translate(0.46 1.035)">
      <path id="Path_12" data-name="Path 12" d="M181.134,23.205a1.494,1.494,0,0,1,.992.333c-.677-.308-1.687-.1-1.761.714a.682.682,0,0,1-.166-.419,1.088,1.088,0,0,0-.493.838C179.508,23.784,180.234,23.205,181.134,23.205Zm3.757.967a9.725,9.725,0,0,0,3.27-.53,1.5,1.5,0,0,0,.985-1.2c0-.665-.819-1.318-.819-2.728a2.842,2.842,0,0,1,1.484-2.562,2.644,2.644,0,0,0-1.01,2.094,2.132,2.132,0,0,0,1.423,2.131c.776.308,1.5.314,1.811.961a1.479,1.479,0,0,0-.875-.289c-1.577,0-2.174,2.95-4.022,3.788.394-1.022-.788-1.355-1.885-1.33-.893.018-2.254.265-2.273,1.675C182.735,25.238,183.277,24.375,184.89,24.172Zm7.3-4.779c0-.08.049-.222.049-.345a.461.461,0,0,0-.092-.265,5.327,5.327,0,0,0-.53-.684.984.984,0,0,0-.881-.345c.3-.166.37-.32.37-.493a.737.737,0,0,0-.216-.462c.2.037.714.246.714.53a.27.27,0,0,1-.086.172l1.244,1.564c-.043.068-.142.037-.222.037a.083.083,0,0,0-.086.092.632.632,0,0,0,.129.308.37.37,0,0,1-.191.055C192.293,19.559,192.189,19.522,192.189,19.393Z" transform="translate(-179.672 -16.8)" fill="#006a4d"/>
    </g>
  </g>
</svg>
